# Blender 4.5.2 LTS
# www.blender.org
o Cube
v -0.500000 -0.500000 0.500000
v -0.500000 0.500000 0.500000
v -0.500000 -0.500000 -0.500000
v -0.500000 0.500000 -0.500000
v 0.500000 -0.500000 0.500000
v 0.500000 0.500000 0.500000
v 0.500000 -0.500000 -0.500000
v 0.500000 0.500000 -0.500000
vn -1.0000 -0.0000 -0.0000
vn -0.0000 -0.0000 -1.0000
vn 1.0000 -0.0000 -0.0000
vn -0.0000 -0.0000 1.0000
vn -0.0000 -1.0000 -0.0000
vn -0.0000 1.0000 -0.0000
vt 0.000000 0.000000
vt 0.000000 0.500000
vt 0.500000 0.500000
vt 0.500000 0.000000
vt 0.000000 1.000000
vt 0.500000 1.000000
vt 1.000000 0.500000
vt 1.000000 0.000000
vt 1.000000 1.000000
s 0
f 1/1/1 2/2/1 4/3/1 3/4/1
f 3/2/2 4/5/2 8/6/2 7/3/2
f 7/3/3 8/6/3 6/5/3 5/2/3
f 5/3/4 6/6/4 2/5/4 1/2/4
f 3/3/5 7/7/5 5/8/5 1/4/5
f 8/9/6 4/6/6 2/3/6 6/7/6
